<svg xmlns="http://www.w3.org/2000/svg" xmlns:xlink="http://www.w3.org/1999/xlink" id="Layer_1" x="0px" y="0px" viewBox="0 0 563.3 174.1" style="enable-background:new 0 0 563.3 174.1;" xml:space="preserve">
<style type="text/css">
	.st0{fill-rule:evenodd;clip-rule:evenodd;fill:#B8BEC4;}
	.st1{fill-rule:evenodd;clip-rule:evenodd;fill:#FDD936;}
	.st2{fill-rule:evenodd;clip-rule:evenodd;fill:#5EC7D0;}
	.st3{fill:#B8BEC4;}
</style>
<g>
	<g>
		<g>
			<path class="st0" d="M276.1,125.6c1.3-3.7,3.9-8.8,5.7-12.5l37.4-80c0.4-1.5-0.1-2.1-0.7-3.5c-1.8-3.9-2.5-2.5-15.9-2.4     c-1.7,1.9-34.3,72.1-39.1,82.1c-1.7,3.6-3.7,8.4-5.7,11.5l0-13.6l-47.2-0.1l0-79.8l-19.4,0l0,98.4L276.1,125.6z M276.1,125.6"></path>
			<path class="st0" d="M12.8,100.7c-2.4,2.9-12,11.2-12.8,13.6c3.2,3.7,14,9.6,20.5,11.3c16.9,4.2,37.7,2.7,46.8-13.7     c4.2-7.7,4.3-17.7,0.2-25.7C59.6,70.9,37.9,69,27.6,61.8c-11.9-8.3-2-23.7,16.9-17.8c5,1.6,7,3.9,10.1,6     c1.7-1.3,12.2-12,13.1-13.5c-3.9-4.6-14-9.2-21.2-10.5c-37-6.4-53.7,22.7-38,44.6c9,12.6,33.3,13.8,40.3,23.3     c7.6,10.2-10.1,23.4-30.9,9.9C15.9,102.6,14.8,101.5,12.8,100.7L12.8,100.7z M12.8,100.7"></path>
		</g>
		<path class="st0" d="M347.4,44.2l27.1,0l0.1,81.3l19.3,0.1l0-81.3l27.2-0.2l0-16.8l-73.7-0.2L347.4,44.2z M347.4,44.2"></path>
		<path class="st0" d="M483.5,119.8c1.3-2,7.3-14.5,7.9-16.8c-1.8-2-3.9-3-6.9-6.9c-11.9-15.5-7.3-38.1,10.2-48.2    c9.2-5.3,13.4-4.3,24.4-3.6l7.5-16.4c-4.2-2.5-15.6-2.8-21.1-2.3c-40.1,3.6-62.2,51-34.9,83.4    C473.6,112.4,478.8,117.4,483.5,119.8L483.5,119.8z M483.5,119.8"></path>
		<path class="st1" d="M98.8,118.2l7.8-16.9c-10.8-10.8-14.9-24.3-8.1-39c6.5-14,19.5-19.4,34.7-18.6l8-17    c-15.7-2.2-25.2-1.8-37.9,4.8C75,46.4,67.6,83.1,86.6,107.2C89.1,110.3,94.8,116.6,98.8,118.2L98.8,118.2z M98.8,118.2"></path>
		<g>
			<path class="st2" d="M159,35.2c-1.3,1.9-7.7,15.5-8,17.5c3.8,2.8,8.4,10.1,9.7,16.8c2.9,14.5-3.7,28.3-15.8,35.4     c-10.6,6.2-16.5,3.3-20.8,4.6l-7.7,16.5c4.1,2.2,15.5,1.7,20.5,0.9c41.7-7.2,55.4-54.1,33.4-81C167.8,42.8,162.8,36.6,159,35.2     L159,35.2z M159,35.2"></path>
			<path class="st0" d="M535.8,54.4c1.1,1.1,3.9,5.6,4.8,7.5c10.4,20.8-3.9,47.3-30.6,47.6l-7.8,17l2.1,0.7c0.8,0.1,1.8,0.2,2.6,0.2     c11.5,0.6,20.4-1.3,30.5-6.9c32.1-18,34.2-62.3,6.6-83.6C542.7,38.9,536.4,52.1,535.8,54.4L535.8,54.4z M535.8,54.4"></path>
		</g>
		<path class="st0" d="M429,125.6l19.1,0l-0.1-98.3l-1.9,0l-17.1,0.2L429,125.6z M429,125.6"></path>
		<g>
			<path class="st0" d="M330.6,55.3c-1.5,1.6-6.8,13.9-8.2,17c-2.2,4.9-2.7,3.8-0.2,8.8c1.1,2.4,3.2,6.4,3.9,8.9h-11.9l-7.3,15.9     l26.9,0.1l8.9,19.6l21-0.2L330.6,55.3z M330.6,55.3"></path>
			<path class="st1" d="M435.6,0.6c-12.5,4.7-5.8,22,5.9,18.3c4.1-1.3,8.2-6.2,6.3-12.4C446.5,2.4,441.1-1.5,435.6,0.6L435.6,0.6z      M435.6,0.6"></path>
		</g>
	</g>
	<path class="st3" d="M162.7,162.9c-0.7-0.9-1.6-1.7-2.6-2.5c2.1-0.4,3.7-1.3,4.8-2.7s1.7-3.3,1.7-5.7c0-1.9-0.4-3.5-1.1-4.8   c-0.7-1.3-1.7-2.3-2.8-2.8s-3.1-0.8-5.7-0.8h-10.5v30.1h5v-12.6h1c1.1,0,2,0.1,2.5,0.3c0.5,0.2,1,0.6,1.5,1.2   c0.5,0.6,1.3,2.1,2.6,4.4l3.6,6.5h5.9l-3-5.9C164.3,165.4,163.4,163.8,162.7,162.9z M155,156.3h-3.7v-7.6h3.9c2.2,0,3.6,0.1,4,0.2   c0.7,0.2,1.2,0.6,1.6,1.2s0.6,1.3,0.6,2.3c0,1-0.2,1.8-0.6,2.4s-0.9,1-1.5,1.2S157.3,156.3,155,156.3z M207,162.6h5.7v3.8   c-0.8,0.8-1.8,1.4-2.8,1.9s-2.1,0.7-3,0.7c-2.1,0-3.7-0.8-4.9-2.4c-1.4-1.9-2.1-4.6-2.1-8.3c0-3.4,0.7-5.9,2-7.5   c1.3-1.6,3-2.5,5.1-2.5c1.4,0,2.5,0.4,3.5,1.2s1.7,2,2,3.5l4.9-1.1c-0.5-2.9-1.6-5.1-3.4-6.6c-1.8-1.5-4.1-2.2-7.1-2.2   c-2.4,0-4.5,0.6-6.3,1.7s-3.2,2.9-4.3,5.3s-1.7,5.2-1.7,8.5c0,3.2,0.5,6,1.6,8.4s2.6,4.2,4.4,5.4s4,1.8,6.4,1.8c2,0,4-0.5,6-1.4   s3.5-2,4.6-3.3v-12H207V162.6z M64.8,163.6l-10.1-20.1h-4.8v30.1h4.6V154l9.9,19.6h5v-30.1h-4.6V163.6z M104,160.4h12.4v-5.1H104   v-6.7h13.3v-5.1H99v30.1h18.7v-5.1H104V160.4z M246.6,173.6h5v-30.1h-5V173.6z M7.4,160.4h12.4v-5.1H7.4v-6.7h13.3v-5.1H2.5v30.1   h18.7v-5.1H7.4V160.4z M407.8,173.6h5v-30.1h-5V173.6z M453,165.8l-0.1-0.3l-2.3,8.2h4.9l8.8-30.1h-5.3L453,165.8z M290.3,150.6   l0.1,0.2l2-7.2h-4.7l-9.6,30.1h5.3l2-6.8h0.5l1.4-5.1H287L290.3,150.6z M543.4,168.5v-8.2h12.4v-5.1h-12.4v-6.7h13.3v-5.1h-18.3   v30.1h18.7v-5.1H543.4z M505.5,162.9c-0.7-0.9-1.6-1.7-2.6-2.5c2.1-0.4,3.7-1.3,4.8-2.7c1.1-1.4,1.7-3.3,1.7-5.7   c0-1.9-0.4-3.5-1.1-4.8c-0.7-1.3-1.7-2.3-2.8-2.8s-3.1-0.8-5.7-0.8h-10.5v30.1h5v-12.6h1c1.1,0,2,0.1,2.5,0.3   c0.5,0.2,1,0.6,1.5,1.2c0.5,0.6,1.3,2.1,2.6,4.4l3.6,6.5h5.9l-3-5.9C507.2,165.4,506.2,163.8,505.5,162.9z M497.9,156.3h-3.7v-7.6   h3.9c2.2,0,3.6,0.1,4,0.2c0.7,0.2,1.2,0.6,1.6,1.2s0.6,1.3,0.6,2.3c0,1-0.2,1.8-0.6,2.4s-0.9,1-1.5,1.2S500.1,156.3,497.9,156.3z    M444.8,143.6h-5.4l7.6,25.9l2.5-9L444.8,143.6z M293.9,155.7l1.9,6.1h-3.5l-1.4,5.1h6.6l2.2,6.8h5.4l-8.7-26.4L293.9,155.7z    M367.7,143.8h-5v29.8H380v-5.1h-12.4V143.8z"></path>
</g>
</svg>